<?xml version="1.0" encoding="UTF-8" standalone="no"?>
<svg
   xmlns:dc="http://purl.org/dc/elements/1.1/"
   xmlns:cc="http://creativecommons.org/ns#"
   xmlns:rdf="http://www.w3.org/1999/02/22-rdf-syntax-ns#"
   xmlns:svg="http://www.w3.org/2000/svg"
   xmlns="http://www.w3.org/2000/svg"
   xmlns:sodipodi="http://sodipodi.sourceforge.net/DTD/sodipodi-0.dtd"
   xmlns:inkscape="http://www.inkscape.org/namespaces/inkscape"
   width="210mm"
   height="297mm"
   viewBox="0 0 210 297"
   version="1.1"
   id="svg8"
   inkscape:version="1.0.1 (0767f8302a, 2020-10-17)"
   sodipodi:docname="dibujo de prueba.svg">
  <defs
     id="defs2">
    <inkscape:perspective
       sodipodi:type="inkscape:persp3d"
       inkscape:vp_x="0 : 148.5 : 1"
       inkscape:vp_y="0 : 1000 : 0"
       inkscape:vp_z="210 : 148.5 : 1"
       inkscape:persp3d-origin="105 : 99 : 1"
       id="perspective12" />
  </defs>
  <sodipodi:namedview
     id="base"
     pagecolor="#ffffff"
     bordercolor="#666666"
     borderopacity="1.0"
     inkscape:pageopacity="0.0"
     inkscape:pageshadow="2"
     inkscape:zoom="0.35"
     inkscape:cx="471.80437"
     inkscape:cy="560"
     inkscape:document-units="mm"
     inkscape:current-layer="layer1"
     inkscape:document-rotation="0"
     showgrid="false"
     inkscape:window-width="1853"
     inkscape:window-height="1025"
     inkscape:window-x="67"
     inkscape:window-y="27"
     inkscape:window-maximized="1" />
  <metadata
     id="metadata5">
    <rdf:RDF>
      <cc:Work
         rdf:about="">
        <dc:format>image/svg+xml</dc:format>
        <dc:type
           rdf:resource="http://purl.org/dc/dcmitype/StillImage" />
        <dc:title></dc:title>
      </cc:Work>
    </rdf:RDF>
  </metadata>
  <g
     inkscape:label="Capa 1"
     inkscape:groupmode="layer"
     id="layer1">
    <path
       style="fill:none;stroke:#000000;stroke-width:0.264583px;stroke-linecap:butt;stroke-linejoin:miter;stroke-opacity:1"
       d="M 263.20893,52.297094 -23.140541,198.48583 248.79436,246.24999 16.196029,15.300937 Z"
       id="path10" />
    <g
       sodipodi:type="inkscape:box3d"
       id="g14"
       style="fill-rule:evenodd;stroke:none;stroke-linejoin:round"
       inkscape:perspectiveID="#perspective12"
       inkscape:corner0="0.67016544 : 0.075887384 : 0 : 1"
       inkscape:corner7="-2.6997213 : -0.23544251 : 0.25 : 1">
      <path
         sodipodi:type="inkscape:box3dside"
         id="path20"
         style="fill:#8686bf;fill-rule:evenodd;stroke:none;stroke-linejoin:round"
         inkscape:box3dsidetype="3"
         d="m 62.868025,132.70074 -124.64286,31.3238 V -19.140715 L 62.868025,319.10736 Z"
         points="-61.774835,164.02454 -61.774835,-19.140715 62.868025,319.10736 62.868025,132.70074 " />
      <path
         sodipodi:type="inkscape:box3dside"
         id="path16"
         style="fill:#353564;fill-rule:evenodd;stroke:none;stroke-linejoin:round"
         inkscape:box3dsidetype="6"
         d="M 62.868025,132.70074 V 319.10736 L 82.024184,296.89477 V 134.75776 Z"
         points="62.868025,319.10736 82.024184,296.89477 82.024184,134.75776 62.868025,132.70074 " />
      <path
         sodipodi:type="inkscape:box3dside"
         id="path18"
         style="fill:#4d4d9f;fill-rule:evenodd;stroke:none;stroke-linejoin:round"
         inkscape:box3dsidetype="5"
         d="m 62.868025,132.70074 -124.64286,31.3238 -46.866735,2.67716 190.665754,-31.94394 z"
         points="-61.774835,164.02454 -108.64157,166.7017 82.024184,134.75776 62.868025,132.70074 " />
      <path
         sodipodi:type="inkscape:box3dside"
         id="path26"
         style="fill:#e9e9ff;fill-rule:evenodd;stroke:none;stroke-linejoin:round"
         inkscape:box3dsidetype="11"
         d="M 82.024184,134.75776 -108.64157,166.7017 V -48.049844 L 82.024184,296.89477 Z"
         points="-108.64157,166.7017 -108.64157,-48.049844 82.024184,296.89477 82.024184,134.75776 " />
      <path
         sodipodi:type="inkscape:box3dside"
         id="path22"
         style="fill:#d7d7ff;fill-rule:evenodd;stroke:none;stroke-linejoin:round"
         inkscape:box3dsidetype="14"
         d="M -61.774835,164.02454 V -19.140715 L -108.64157,-48.049844 V 166.7017 Z"
         points="-61.774835,-19.140715 -108.64157,-48.049844 -108.64157,166.7017 -61.774835,164.02454 " />
      <path
         sodipodi:type="inkscape:box3dside"
         id="path24"
         style="fill:#afafde;fill-rule:evenodd;stroke:none;stroke-linejoin:round"
         inkscape:box3dsidetype="13"
         d="M 62.868025,319.10736 -61.774835,-19.140715 -108.64157,-48.049844 82.024184,296.89477 Z"
         points="-61.774835,-19.140715 -108.64157,-48.049844 82.024184,296.89477 62.868025,319.10736 " />
    </g>
    <g
       sodipodi:type="inkscape:box3d"
       id="g28"
       style="fill-rule:evenodd;stroke:none;stroke-linejoin:round"
       inkscape:perspectiveID="#perspective12"
       inkscape:corner0="-4.1503362 : 0.011305963 : 0 : 1"
       inkscape:corner7="-13.245343 : -0.021505505 : 0.25 : 1">
      <path
         sodipodi:type="inkscape:box3dside"
         id="path34"
         style="fill:#8686bf;fill-rule:evenodd;stroke:none;stroke-linejoin:round"
         inkscape:box3dsidetype="3"
         d="m -33.329777,136.37621 24.7550884,9.00473 v -2.67951 L -33.329777,125.96098 Z"
         points="-8.5746886,145.38094 -8.5746886,142.70143 -33.329777,125.96098 -33.329777,136.37621 " />
      <path
         sodipodi:type="inkscape:box3dside"
         id="path30"
         style="fill:#353564;fill-rule:evenodd;stroke:none;stroke-linejoin:round"
         inkscape:box3dsidetype="6"
         d="m -33.329777,136.37621 v -10.41523 l -20.974274,-1.94279 v 11.31298 z"
         points="-33.329777,125.96098 -54.304051,124.01819 -54.304051,135.33117 -33.329777,136.37621 " />
      <path
         sodipodi:type="inkscape:box3dside"
         id="path32"
         style="fill:#4d4d9f;fill-rule:evenodd;stroke:none;stroke-linejoin:round"
         inkscape:box3dsidetype="5"
         d="m -33.329777,136.37621 24.7550884,9.00473 -4.5554074,-0.065 -41.173955,-9.98476 z"
         points="-8.5746886,145.38094 -13.130096,145.31593 -54.304051,135.33117 -33.329777,136.37621 " />
      <path
         sodipodi:type="inkscape:box3dside"
         id="path40"
         style="fill:#e9e9ff;fill-rule:evenodd;stroke:none;stroke-linejoin:round"
         inkscape:box3dsidetype="11"
         d="m -54.304051,135.33117 41.173955,9.98476 v -2.73535 l -41.173955,-18.56239 z"
         points="-13.130096,145.31593 -13.130096,142.58058 -54.304051,124.01819 -54.304051,135.33117 " />
      <path
         sodipodi:type="inkscape:box3dside"
         id="path36"
         style="fill:#d7d7ff;fill-rule:evenodd;stroke:none;stroke-linejoin:round"
         inkscape:box3dsidetype="14"
         d="m -8.5746886,145.38094 v -2.67951 l -4.5554074,-0.12085 v 2.73535 z"
         points="-8.5746886,142.70143 -13.130096,142.58058 -13.130096,145.31593 -8.5746886,145.38094 " />
      <path
         sodipodi:type="inkscape:box3dside"
         id="path38"
         style="fill:#afafde;fill-rule:evenodd;stroke:none;stroke-linejoin:round"
         inkscape:box3dsidetype="13"
         d="m -33.329777,125.96098 24.7550884,16.74045 -4.5554074,-0.12085 -41.173955,-18.56239 z"
         points="-8.5746886,142.70143 -13.130096,142.58058 -54.304051,124.01819 -33.329777,125.96098 " />
    </g>
    <path
       sodipodi:type="star"
       style="fill:#ffff00;fill-rule:evenodd;stroke-width:0.264583"
       id="path42"
       sodipodi:sides="5"
       sodipodi:cx="-297.26788"
       sodipodi:cy="-42.461903"
       sodipodi:r1="55.614223"
       sodipodi:r2="27.80711"
       sodipodi:arg1="0.4863064"
       sodipodi:arg2="1.1146249"
       inkscape:flatsided="false"
       inkscape:rounded="0"
       inkscape:randomized="0"
       d="m -248.10129,-16.469833 -36.91716,-1.028359 -21.77605,29.828492 -10.43,-35.428093 -35.09775,-11.492735 30.47107,-20.867408 0.0844,-36.931393 29.26216,22.531327 35.14994,-11.332121 -12.38606,34.792533 z"
       inkscape:transform-center-x="2.9438815"
       inkscape:transform-center-y="2.432389" />
    <path
       sodipodi:type="star"
       style="fill:#ffff00;fill-rule:evenodd;stroke-width:0.264583"
       id="path44"
       sodipodi:sides="5"
       sodipodi:cx="95.31118"
       sodipodi:cy="146.19942"
       sodipodi:r1="17.534412"
       sodipodi:r2="8.7672062"
       sodipodi:arg1="-2.4306803"
       sodipodi:arg2="-1.8023618"
       inkscape:flatsided="false"
       inkscape:rounded="0"
       inkscape:randomized="0"
       d="m 82.024184,134.75777 11.274909,2.90845 8.787837,-7.63915 0.71803,11.62184 9.98086,5.9971 -10.83114,4.27423 -2.619327,11.34557 -7.412046,-8.98022 -11.59969,1.01485 6.250244,-9.82432 z"
       inkscape:transform-center-x="-1.2435367"
       inkscape:transform-center-y="0.44701853" />
    <ellipse
       style="fill:#ff0000;fill-rule:evenodd;stroke-width:0.264583"
       id="path46"
       cx="88.174416"
       cy="18.084005"
       rx="75.046059"
       ry="27.267138" />
    <rect
       style="fill:#0000ff;fill-rule:evenodd;stroke-width:0.236267"
       id="rect48"
       width="490.3139"
       height="243.1261"
       x="169.84212"
       y="-84.023293" />
  </g>
</svg>
